# xmcd
#
# Track frame offsets: 
#        150
#        16013
#        36254
#        55121
#        79291
#        92742
#        103379
#        123252
#        140127
#        146121
#        171138
#        184163
#        203457
#        225783
#
# Disc length: 3130 seconds
#
# Revision: 1
# Processed by: cddbd v1.5.2PL0 Copyright (c) Steve Scherf et al.
# Submitted via: ExactAudioCopy v1.0b3
#
DISCID=b90c380e
DTITLE=Gallagher, Rory - Wheels Within Wheels
DYEAR=2003
DGENRE=Blues
TTITLE0=Wheels Within Wheels
TTITLE1=Flight To Paradise
TTITLE2=As The Crow Flies
TTITLE3=Lonesome Highway
TTITLE4=Bratacha Dubha
TTITLE5=She Moved Thro' The Fair+Ann Cran Ull
TTITLE6=Barley And Grape Rag
TTITLE7=The Cuckoo
TTITLE8=Amazing Grace
TTITLE9=The Walkin' Blues
TTITLE10=Blue Moon Of Kentucky
TTITLE11=Deep Elm Blues
TTITLE12=Goin' To My Hometown
TTITLE13=Lonesome Highway Refraining
EXTD=
EXTT0=
EXTT1=
EXTT2=
EXTT3=
EXTT4=
EXTT5=
EXTT6=
EXTT7=
EXTT8=
EXTT9=
EXTT10=
EXTT11=
EXTT12=
EXTT13=
PLAYORDER=
